<mxfile host="app.diagrams.net" modified="2022-04-27T04:32:41.088Z" agent="5.0 (Macintosh; Intel Mac OS X 10_15_7) AppleWebKit/537.36 (KHTML, like Gecko) Chrome/100.0.4896.127 Safari/537.36" etag="cqQhTvid2F3pv4CIO3d5" version="17.4.6" type="github">
  <diagram id="zF0i2NfZyt6POZ8Hoylk" name="Page-1">
    <mxGraphModel dx="232" dy="129" grid="1" gridSize="10" guides="1" tooltips="1" connect="1" arrows="1" fold="1" page="1" pageScale="1" pageWidth="850" pageHeight="1100" math="0" shadow="0">
      <root>
        <mxCell id="0" />
        <mxCell id="1" parent="0" />
        <mxCell id="_R6vVu1srhFoFrEtBV-Y-3" value="15&#39;" style="shape=dimension;whiteSpace=wrap;html=1;align=center;points=[];verticalAlign=bottom;spacingBottom=-5;labelBackgroundColor=#ffffff" vertex="1" parent="1">
          <mxGeometry x="200" y="180" width="150" height="10" as="geometry" />
        </mxCell>
        <mxCell id="_R6vVu1srhFoFrEtBV-Y-8" value="" style="rounded=0;whiteSpace=wrap;html=1;fillColor=#009900;strokeColor=none;" vertex="1" parent="1">
          <mxGeometry x="200" y="190" width="150" height="20" as="geometry" />
        </mxCell>
        <mxCell id="_R6vVu1srhFoFrEtBV-Y-9" value="" style="rounded=0;whiteSpace=wrap;html=1;fillColor=#009900;strokeColor=none;" vertex="1" parent="1">
          <mxGeometry x="310" y="210" width="40" height="60" as="geometry" />
        </mxCell>
        <mxCell id="_R6vVu1srhFoFrEtBV-Y-10" value="" style="rounded=0;whiteSpace=wrap;html=1;fillColor=#009900;strokeColor=none;" vertex="1" parent="1">
          <mxGeometry x="200" y="210" width="40" height="60" as="geometry" />
        </mxCell>
        <mxCell id="_R6vVu1srhFoFrEtBV-Y-11" value="" style="rounded=0;whiteSpace=wrap;html=1;fillColor=#009900;strokeColor=none;" vertex="1" parent="1">
          <mxGeometry x="200" y="270" width="60" height="70" as="geometry" />
        </mxCell>
        <mxCell id="_R6vVu1srhFoFrEtBV-Y-12" value="" style="rounded=0;whiteSpace=wrap;html=1;fillColor=#009900;strokeColor=none;" vertex="1" parent="1">
          <mxGeometry x="290" y="270" width="60" height="70" as="geometry" />
        </mxCell>
      </root>
    </mxGraphModel>
  </diagram>
</mxfile>
